# xmcd
#
# Track frame offsets: 
#        150
#        12530
#        25783
#        39229
#        53428
#        66275
#        77246
#        90796
#        104569
#        117811
#        132465
#        146647
#        160566
#        172213
#        186180
#        198632
#        210037
#        224913
#        238434
#        251015
#
# Disc length: 3496 seconds
#
# Revision: 0
# Processed by: cddbd v1.5.2PL0 Copyright (c) Steve Scherf et al.
# Submitted via: ExactAudioCopy v0.95a4
#
DISCID=200da614
DTITLE=Various Artist - All Time Great Singing Cowboys, CD Two
DYEAR=2007
DGENRE=Country
TTITLE0=Tex Ritter - High Noon
TTITLE1=The Sons of the Pioneers - Cool Water
TTITLE2=The Yodelling Jackaroo - A Cowboy's Life Is Good Enough for Me
TTITLE3=Gene Autry - The Old Trail
TTITLE4=Jesse Rogers - Back in the Saddle Again
TTITLE5=Roy Rogers - My Chickashay Gal
TTITLE6=Jimmy Wakely - Pale Moon
TTITLE7=Elton Britt - Over the Trail
TTITLE8=Smoky Dawson - Cowboy's Roundup Song
TTITLE9=Tex Ritter - Rye Whiskey
TTITLE10=The Yodelling Rustler - Cowboy's Dream
TTITLE11=Jesse Rogers - The Yellow Rose of Texas
TTITLE12=Gene Autry - Blue Montana Skies
TTITLE13=Kenny Roberts - Wagon Wheels
TTITLE14=Al Dexter - Triflin' Gal
TTITLE15=The Sons of the Pioneers - Red River Valley
TTITLE16=Phil Pavey - Bronco Bustin' Blues
TTITLE17=Gene Autry - Over and Over Again
TTITLE18=Tim McNamara - Happy Cowboy
TTITLE19=Roy Rogers - I'm Gonna Gallop, Gallop to Gallup, New Mexico
EXTD=
EXTT0=
EXTT1=
EXTT2=
EXTT3=
EXTT4=
EXTT5=
EXTT6=
EXTT7=
EXTT8=
EXTT9=
EXTT10=
EXTT11=
EXTT12=
EXTT13=
EXTT14=
EXTT15=
EXTT16=
EXTT17=
EXTT18=
EXTT19=
PLAYORDER=
